<?xml version="1.0" encoding="UTF-8" standalone="no"?>
<!DOCTYPE svg PUBLIC "-//W3C//DTD SVG 1.1//EN"
 "http://www.w3.org/Graphics/SVG/1.1/DTD/svg11.dtd">
<!-- Generated by graphviz version 5.0.0 (20220707.1540)
 -->
<!-- Title: dependencies Pages: 1 -->
<svg width="710pt" height="174pt"
 viewBox="0.00 0.00 710.00 173.80" xmlns="http://www.w3.org/2000/svg" xmlns:xlink="http://www.w3.org/1999/xlink">
<g id="graph0" class="graph" transform="scale(1 1) rotate(0) translate(4 169.8)">
<title>dependencies</title>
<polygon fill="white" stroke="transparent" points="-4,4 -4,-169.8 706,-169.8 706,4 -4,4"/>
<text text-anchor="middle" x="351" y="-8.2" font-family="sans-serif" font-size="14.00">dependencies</text>
<g id="clust1" class="cluster">
<title>cluster_PokemonModule</title>
<polygon fill="none" stroke="black" stroke-dasharray="1,5" points="8,-32.8 8,-157.8 694,-157.8 694,-32.8 8,-32.8"/>
</g>
<g id="clust2" class="cluster">
<title>cluster_PokemonModule_declarations</title>
<polygon fill="none" stroke="black" points="16,-40.8 16,-92.8 686,-92.8 686,-40.8 16,-40.8"/>
</g>
<!-- CardStylingDirective -->
<g id="node1" class="node">
<title>CardStylingDirective</title>
<polygon fill="#ffffb3" stroke="black" points="677.75,-84.8 542.25,-84.8 542.25,-48.8 677.75,-48.8 677.75,-84.8"/>
<text text-anchor="middle" x="610" y="-62.6" font-family="Times,serif" font-size="14.00">CardStylingDirective</text>
</g>
<!-- PokemonModule -->
<g id="node5" class="node">
<title>PokemonModule</title>
<polygon fill="#8dd3c7" stroke="black" points="427.44,-149.8 424.44,-153.8 403.44,-153.8 400.44,-149.8 314.56,-149.8 314.56,-113.8 427.44,-113.8 427.44,-149.8"/>
<text text-anchor="middle" x="371" y="-127.6" font-family="Times,serif" font-size="14.00">PokemonModule</text>
</g>
<!-- CardStylingDirective&#45;&gt;PokemonModule -->
<g id="edge1" class="edge">
<title>CardStylingDirective&#45;&gt;PokemonModule</title>
<path fill="none" stroke="black" d="M610,-84.91C610,-104.14 610,-131.8 610,-131.8 610,-131.8 437.34,-131.8 437.34,-131.8"/>
<polygon fill="black" stroke="black" points="437.34,-128.3 427.34,-131.8 437.34,-135.3 437.34,-128.3"/>
</g>
<!-- PkmnTypeColorPipe -->
<g id="node2" class="node">
<title>PkmnTypeColorPipe</title>
<polygon fill="#ffffb3" stroke="black" points="524.22,-84.8 389.78,-84.8 389.78,-48.8 524.22,-48.8 524.22,-84.8"/>
<text text-anchor="middle" x="457" y="-62.6" font-family="Times,serif" font-size="14.00">PkmnTypeColorPipe</text>
</g>
<!-- PkmnTypeColorPipe&#45;&gt;PokemonModule -->
<g id="edge2" class="edge">
<title>PkmnTypeColorPipe&#45;&gt;PokemonModule</title>
<path fill="none" stroke="black" d="M408.56,-84.91C408.56,-84.91 408.56,-103.79 408.56,-103.79"/>
<polygon fill="black" stroke="black" points="405.06,-103.79 408.56,-113.79 412.06,-103.79 405.06,-103.79"/>
</g>
<!-- PokemonDetailsComponent -->
<g id="node3" class="node">
<title>PokemonDetailsComponent</title>
<polygon fill="#ffffb3" stroke="black" points="371.88,-84.8 198.12,-84.8 198.12,-48.8 371.88,-48.8 371.88,-84.8"/>
<text text-anchor="middle" x="285" y="-62.6" font-family="Times,serif" font-size="14.00">PokemonDetailsComponent</text>
</g>
<!-- PokemonDetailsComponent&#45;&gt;PokemonModule -->
<g id="edge3" class="edge">
<title>PokemonDetailsComponent&#45;&gt;PokemonModule</title>
<path fill="none" stroke="black" d="M343.36,-84.91C343.36,-84.91 343.36,-103.79 343.36,-103.79"/>
<polygon fill="black" stroke="black" points="339.86,-103.79 343.36,-113.79 346.86,-103.79 339.86,-103.79"/>
</g>
<!-- PokemonListComponent -->
<g id="node4" class="node">
<title>PokemonListComponent</title>
<polygon fill="#ffffb3" stroke="black" points="180,-84.8 24,-84.8 24,-48.8 180,-48.8 180,-84.8"/>
<text text-anchor="middle" x="102" y="-62.6" font-family="Times,serif" font-size="14.00">PokemonListComponent</text>
</g>
<!-- PokemonListComponent&#45;&gt;PokemonModule -->
<g id="edge4" class="edge">
<title>PokemonListComponent&#45;&gt;PokemonModule</title>
<path fill="none" stroke="black" d="M102,-84.91C102,-104.14 102,-131.8 102,-131.8 102,-131.8 304.61,-131.8 304.61,-131.8"/>
<polygon fill="black" stroke="black" points="304.61,-135.3 314.61,-131.8 304.61,-128.3 304.61,-135.3"/>
</g>
</g>
</svg>
