<?xml version="1.0" encoding="UTF-8" standalone="no"?>
<!DOCTYPE svg PUBLIC "-//W3C//DTD SVG 1.1//EN"
 "http://www.w3.org/Graphics/SVG/1.1/DTD/svg11.dtd">
<!-- Generated by graphviz version 5.0.0 (20220707.1540)
 -->
<!-- Title: dependencies Pages: 1 -->
<svg width="628pt" height="247pt"
 viewBox="0.00 0.00 628.00 246.80" xmlns="http://www.w3.org/2000/svg" xmlns:xlink="http://www.w3.org/1999/xlink">
<g id="graph0" class="graph" transform="scale(1 1) rotate(0) translate(4 242.8)">
<title>dependencies</title>
<polygon fill="white" stroke="transparent" points="-4,4 -4,-242.8 624,-242.8 624,4 -4,4"/>
<text text-anchor="middle" x="310" y="-8.2" font-family="sans-serif" font-size="14.00">dependencies</text>
<g id="clust1" class="cluster">
<title>cluster_AppModule</title>
<polygon fill="none" stroke="black" stroke-dasharray="1,5" points="8,-32.8 8,-230.8 612,-230.8 612,-32.8 8,-32.8"/>
</g>
<g id="clust5" class="cluster">
<title>cluster_AppModule_imports</title>
<polygon fill="none" stroke="black" points="329,-40.8 329,-92.8 604,-92.8 604,-40.8 329,-40.8"/>
</g>
<g id="clust2" class="cluster">
<title>cluster_AppModule_declarations</title>
<polygon fill="none" stroke="black" points="16,-40.8 16,-92.8 321,-92.8 321,-40.8 16,-40.8"/>
</g>
<g id="clust7" class="cluster">
<title>cluster_AppModule_bootstrap</title>
<polygon fill="none" stroke="black" points="264,-170.8 264,-222.8 388,-222.8 388,-170.8 264,-170.8"/>
</g>
<!-- AppComponent -->
<g id="node1" class="node">
<title>AppComponent</title>
<polygon fill="#ffffb3" stroke="black" points="312.94,-84.8 207.06,-84.8 207.06,-48.8 312.94,-48.8 312.94,-84.8"/>
<text text-anchor="middle" x="260" y="-62.6" font-family="Times,serif" font-size="14.00">AppComponent</text>
</g>
<!-- AppModule -->
<g id="node3" class="node">
<title>AppModule</title>
<polygon fill="#8dd3c7" stroke="black" points="367.66,-149.8 364.66,-153.8 343.66,-153.8 340.66,-149.8 284.34,-149.8 284.34,-113.8 367.66,-113.8 367.66,-149.8"/>
<text text-anchor="middle" x="326" y="-127.6" font-family="Times,serif" font-size="14.00">AppModule</text>
</g>
<!-- AppComponent&#45;&gt;AppModule -->
<g id="edge1" class="edge">
<title>AppComponent&#45;&gt;AppModule</title>
<path fill="none" stroke="black" d="M298.44,-84.91C298.44,-84.91 298.44,-103.79 298.44,-103.79"/>
<polygon fill="black" stroke="black" points="294.94,-103.79 298.44,-113.79 301.94,-103.79 294.94,-103.79"/>
</g>
<!-- PageNotFoundComponent -->
<g id="node2" class="node">
<title>PageNotFoundComponent</title>
<polygon fill="#ffffb3" stroke="black" points="189.83,-84.8 24.17,-84.8 24.17,-48.8 189.83,-48.8 189.83,-84.8"/>
<text text-anchor="middle" x="107" y="-62.6" font-family="Times,serif" font-size="14.00">PageNotFoundComponent</text>
</g>
<!-- PageNotFoundComponent&#45;&gt;AppModule -->
<g id="edge2" class="edge">
<title>PageNotFoundComponent&#45;&gt;AppModule</title>
<path fill="none" stroke="black" d="M107,-84.91C107,-104.14 107,-131.8 107,-131.8 107,-131.8 274.29,-131.8 274.29,-131.8"/>
<polygon fill="black" stroke="black" points="274.29,-135.3 284.29,-131.8 274.29,-128.3 274.29,-135.3"/>
</g>
<!-- AppComponent  -->
<g id="node6" class="node">
<title>AppComponent </title>
<polygon fill="#80b1d3" stroke="black" points="380.44,-214.8 271.56,-214.8 271.56,-178.8 380.44,-178.8 380.44,-214.8"/>
<text text-anchor="middle" x="326" y="-192.6" font-family="Times,serif" font-size="14.00">AppComponent </text>
</g>
<!-- AppModule&#45;&gt;AppComponent  -->
<g id="edge5" class="edge">
<title>AppModule&#45;&gt;AppComponent </title>
<path fill="none" stroke="black" stroke-dasharray="1,5" d="M326,-149.91C326,-149.91 326,-168.79 326,-168.79"/>
<polygon fill="black" stroke="black" points="322.5,-168.79 326,-178.79 329.5,-168.79 322.5,-168.79"/>
</g>
<!-- AppRoutingModule -->
<g id="node4" class="node">
<title>AppRoutingModule</title>
<polygon fill="#8dd3c7" stroke="black" points="596.28,-84.8 593.28,-88.8 572.28,-88.8 569.28,-84.8 467.72,-84.8 467.72,-48.8 596.28,-48.8 596.28,-84.8"/>
<text text-anchor="middle" x="532" y="-62.6" font-family="Times,serif" font-size="14.00">AppRoutingModule</text>
</g>
<!-- AppRoutingModule&#45;&gt;AppModule -->
<g id="edge3" class="edge">
<title>AppRoutingModule&#45;&gt;AppModule</title>
<path fill="none" stroke="black" d="M532,-84.91C532,-104.14 532,-131.8 532,-131.8 532,-131.8 377.69,-131.8 377.69,-131.8"/>
<polygon fill="black" stroke="black" points="377.69,-128.3 367.69,-131.8 377.69,-135.3 377.69,-128.3"/>
</g>
<!-- PokemonModule -->
<g id="node5" class="node">
<title>PokemonModule</title>
<polygon fill="#8dd3c7" stroke="black" points="449.44,-84.8 446.44,-88.8 425.44,-88.8 422.44,-84.8 336.56,-84.8 336.56,-48.8 449.44,-48.8 449.44,-84.8"/>
<text text-anchor="middle" x="393" y="-62.6" font-family="Times,serif" font-size="14.00">PokemonModule</text>
</g>
<!-- PokemonModule&#45;&gt;AppModule -->
<g id="edge4" class="edge">
<title>PokemonModule&#45;&gt;AppModule</title>
<path fill="none" stroke="black" d="M352.31,-84.91C352.31,-84.91 352.31,-103.79 352.31,-103.79"/>
<polygon fill="black" stroke="black" points="348.81,-103.79 352.31,-113.79 355.81,-103.79 348.81,-103.79"/>
</g>
</g>
</svg>
