<?xml version="1.0" encoding="UTF-8" standalone="no"?>
<!DOCTYPE svg PUBLIC "-//W3C//DTD SVG 1.1//EN"
 "http://www.w3.org/Graphics/SVG/1.1/DTD/svg11.dtd">
<!-- Generated by graphviz version 5.0.0 (20220707.1540)
 -->
<!-- Title: dependencies Pages: 1 -->
<svg width="1170pt" height="247pt"
 viewBox="0.00 0.00 1170.00 246.80" xmlns="http://www.w3.org/2000/svg" xmlns:xlink="http://www.w3.org/1999/xlink">
<g id="graph0" class="graph" transform="scale(1 1) rotate(0) translate(4 242.8)">
<title>dependencies</title>
<polygon fill="white" stroke="transparent" points="-4,4 -4,-242.8 1166,-242.8 1166,4 -4,4"/>
<text text-anchor="middle" x="581" y="-8.2" font-family="sans-serif" font-size="14.00">dependencies</text>
<g id="clust1" class="cluster">
<title>cluster_AppModule</title>
<polygon fill="none" stroke="black" stroke-dasharray="1,5" points="8,-32.8 8,-230.8 1154,-230.8 1154,-32.8 8,-32.8"/>
</g>
<g id="clust11" class="cluster">
<title>cluster_AppModule_bootstrap</title>
<polygon fill="none" stroke="black" points="563,-170.8 563,-222.8 687,-222.8 687,-170.8 563,-170.8"/>
</g>
<g id="clust9" class="cluster">
<title>cluster_AppModule_imports</title>
<polygon fill="none" stroke="black" points="1002,-40.8 1002,-92.8 1146,-92.8 1146,-40.8 1002,-40.8"/>
</g>
<g id="clust2" class="cluster">
<title>cluster_AppModule_declarations</title>
<polygon fill="none" stroke="black" points="16,-40.8 16,-92.8 994,-92.8 994,-40.8 16,-40.8"/>
</g>
<!-- AppComponent -->
<g id="node1" class="node">
<title>AppComponent</title>
<polygon fill="#ffffb3" stroke="black" points="985.94,-84.8 880.06,-84.8 880.06,-48.8 985.94,-48.8 985.94,-84.8"/>
<text text-anchor="middle" x="933" y="-62.6" font-family="Times,serif" font-size="14.00">AppComponent</text>
</g>
<!-- AppModule -->
<g id="node7" class="node">
<title>AppModule</title>
<polygon fill="#8dd3c7" stroke="black" points="666.66,-149.8 663.66,-153.8 642.66,-153.8 639.66,-149.8 583.34,-149.8 583.34,-113.8 666.66,-113.8 666.66,-149.8"/>
<text text-anchor="middle" x="625" y="-127.6" font-family="Times,serif" font-size="14.00">AppModule</text>
</g>
<!-- AppComponent&#45;&gt;AppModule -->
<g id="edge1" class="edge">
<title>AppComponent&#45;&gt;AppModule</title>
<path fill="none" stroke="black" d="M933,-84.91C933,-104.14 933,-131.8 933,-131.8 933,-131.8 676.86,-131.8 676.86,-131.8"/>
<polygon fill="black" stroke="black" points="676.86,-128.3 666.86,-131.8 676.86,-135.3 676.86,-128.3"/>
</g>
<!-- CardStylingDirective -->
<g id="node2" class="node">
<title>CardStylingDirective</title>
<polygon fill="#ffffb3" stroke="black" points="861.75,-84.8 726.25,-84.8 726.25,-48.8 861.75,-48.8 861.75,-84.8"/>
<text text-anchor="middle" x="794" y="-62.6" font-family="Times,serif" font-size="14.00">CardStylingDirective</text>
</g>
<!-- CardStylingDirective&#45;&gt;AppModule -->
<g id="edge2" class="edge">
<title>CardStylingDirective&#45;&gt;AppModule</title>
<path fill="none" stroke="black" d="M794,-84.83C794,-101.2 794,-122.8 794,-122.8 794,-122.8 676.78,-122.8 676.78,-122.8"/>
<polygon fill="black" stroke="black" points="676.78,-119.3 666.78,-122.8 676.78,-126.3 676.78,-119.3"/>
</g>
<!-- PageNotFoundComponent -->
<g id="node3" class="node">
<title>PageNotFoundComponent</title>
<polygon fill="#ffffb3" stroke="black" points="707.83,-84.8 542.17,-84.8 542.17,-48.8 707.83,-48.8 707.83,-84.8"/>
<text text-anchor="middle" x="625" y="-62.6" font-family="Times,serif" font-size="14.00">PageNotFoundComponent</text>
</g>
<!-- PageNotFoundComponent&#45;&gt;AppModule -->
<g id="edge3" class="edge">
<title>PageNotFoundComponent&#45;&gt;AppModule</title>
<path fill="none" stroke="black" d="M625,-84.91C625,-84.91 625,-103.79 625,-103.79"/>
<polygon fill="black" stroke="black" points="621.5,-103.79 625,-113.79 628.5,-103.79 621.5,-103.79"/>
</g>
<!-- PkmnTypeColorPipe -->
<g id="node4" class="node">
<title>PkmnTypeColorPipe</title>
<polygon fill="#ffffb3" stroke="black" points="524.22,-84.8 389.78,-84.8 389.78,-48.8 524.22,-48.8 524.22,-84.8"/>
<text text-anchor="middle" x="457" y="-62.6" font-family="Times,serif" font-size="14.00">PkmnTypeColorPipe</text>
</g>
<!-- PkmnTypeColorPipe&#45;&gt;AppModule -->
<g id="edge4" class="edge">
<title>PkmnTypeColorPipe&#45;&gt;AppModule</title>
<path fill="none" stroke="black" d="M457,-84.83C457,-101.2 457,-122.8 457,-122.8 457,-122.8 573.04,-122.8 573.04,-122.8"/>
<polygon fill="black" stroke="black" points="573.04,-126.3 583.04,-122.8 573.04,-119.3 573.04,-126.3"/>
</g>
<!-- PokemonDetailsComponent -->
<g id="node5" class="node">
<title>PokemonDetailsComponent</title>
<polygon fill="#ffffb3" stroke="black" points="371.88,-84.8 198.12,-84.8 198.12,-48.8 371.88,-48.8 371.88,-84.8"/>
<text text-anchor="middle" x="285" y="-62.6" font-family="Times,serif" font-size="14.00">PokemonDetailsComponent</text>
</g>
<!-- PokemonDetailsComponent&#45;&gt;AppModule -->
<g id="edge5" class="edge">
<title>PokemonDetailsComponent&#45;&gt;AppModule</title>
<path fill="none" stroke="black" d="M285,-84.91C285,-104.14 285,-131.8 285,-131.8 285,-131.8 573.31,-131.8 573.31,-131.8"/>
<polygon fill="black" stroke="black" points="573.31,-135.3 583.31,-131.8 573.31,-128.3 573.31,-135.3"/>
</g>
<!-- PokemonListComponent -->
<g id="node6" class="node">
<title>PokemonListComponent</title>
<polygon fill="#ffffb3" stroke="black" points="180,-84.8 24,-84.8 24,-48.8 180,-48.8 180,-84.8"/>
<text text-anchor="middle" x="102" y="-62.6" font-family="Times,serif" font-size="14.00">PokemonListComponent</text>
</g>
<!-- PokemonListComponent&#45;&gt;AppModule -->
<g id="edge6" class="edge">
<title>PokemonListComponent&#45;&gt;AppModule</title>
<path fill="none" stroke="black" d="M102,-85.09C102,-107.01 102,-140.8 102,-140.8 102,-140.8 573.08,-140.8 573.08,-140.8"/>
<polygon fill="black" stroke="black" points="573.08,-144.3 583.08,-140.8 573.08,-137.3 573.08,-144.3"/>
</g>
<!-- AppComponent  -->
<g id="node9" class="node">
<title>AppComponent </title>
<polygon fill="#80b1d3" stroke="black" points="679.44,-214.8 570.56,-214.8 570.56,-178.8 679.44,-178.8 679.44,-214.8"/>
<text text-anchor="middle" x="625" y="-192.6" font-family="Times,serif" font-size="14.00">AppComponent </text>
</g>
<!-- AppModule&#45;&gt;AppComponent  -->
<g id="edge8" class="edge">
<title>AppModule&#45;&gt;AppComponent </title>
<path fill="none" stroke="black" stroke-dasharray="1,5" d="M625,-149.91C625,-149.91 625,-168.79 625,-168.79"/>
<polygon fill="black" stroke="black" points="621.5,-168.79 625,-178.79 628.5,-168.79 621.5,-168.79"/>
</g>
<!-- AppRoutingModule -->
<g id="node8" class="node">
<title>AppRoutingModule</title>
<polygon fill="#8dd3c7" stroke="black" points="1138.28,-84.8 1135.28,-88.8 1114.28,-88.8 1111.28,-84.8 1009.72,-84.8 1009.72,-48.8 1138.28,-48.8 1138.28,-84.8"/>
<text text-anchor="middle" x="1074" y="-62.6" font-family="Times,serif" font-size="14.00">AppRoutingModule</text>
</g>
<!-- AppRoutingModule&#45;&gt;AppModule -->
<g id="edge7" class="edge">
<title>AppRoutingModule&#45;&gt;AppModule</title>
<path fill="none" stroke="black" d="M1074,-85.09C1074,-107.01 1074,-140.8 1074,-140.8 1074,-140.8 676.84,-140.8 676.84,-140.8"/>
<polygon fill="black" stroke="black" points="676.84,-137.3 666.84,-140.8 676.84,-144.3 676.84,-137.3"/>
</g>
</g>
</svg>
