<?xml version="1.0" encoding="UTF-8" standalone="no"?>
<!DOCTYPE svg PUBLIC "-//W3C//DTD SVG 1.1//EN"
 "http://www.w3.org/Graphics/SVG/1.1/DTD/svg11.dtd">
<!-- Generated by graphviz version 5.0.0 (20220707.1540)
 -->
<!-- Title: dependencies Pages: 1 -->
<svg width="1170pt" height="247pt"
 viewBox="0.00 0.00 1170.00 246.80" xmlns="http://www.w3.org/2000/svg" xmlns:xlink="http://www.w3.org/1999/xlink">
<g id="graph0" class="graph" transform="scale(1 1) rotate(0) translate(4 242.8)">
<title>dependencies</title>
<polygon fill="white" stroke="transparent" points="-4,4 -4,-242.8 1166,-242.8 1166,4 -4,4"/>
<text text-anchor="middle" x="581" y="-8.2" font-family="sans-serif" font-size="14.00">dependencies</text>
<g id="clust1" class="cluster">
<title>cluster_AppModule</title>
<polygon fill="none" stroke="black" stroke-dasharray="1,5" points="8,-32.8 8,-230.8 1154,-230.8 1154,-32.8 8,-32.8"/>
</g>
<g id="clust2" class="cluster">
<title>cluster_AppModule_declarations</title>
<polygon fill="none" stroke="black" points="168,-40.8 168,-92.8 1146,-92.8 1146,-40.8 168,-40.8"/>
</g>
<g id="clust9" class="cluster">
<title>cluster_AppModule_imports</title>
<polygon fill="none" stroke="black" points="16,-40.8 16,-92.8 160,-92.8 160,-40.8 16,-40.8"/>
</g>
<g id="clust11" class="cluster">
<title>cluster_AppModule_bootstrap</title>
<polygon fill="none" stroke="black" points="547,-170.8 547,-222.8 671,-222.8 671,-170.8 547,-170.8"/>
</g>
<!-- AppComponent -->
<g id="node1" class="node">
<title>AppComponent</title>
<polygon fill="#ffffb3" stroke="black" points="1137.94,-84.8 1032.06,-84.8 1032.06,-48.8 1137.94,-48.8 1137.94,-84.8"/>
<text text-anchor="middle" x="1085" y="-62.6" font-family="Times,serif" font-size="14.00">AppComponent</text>
</g>
<!-- AppModule -->
<g id="node7" class="node">
<title>AppModule</title>
<polygon fill="#8dd3c7" stroke="black" points="650.66,-149.8 647.66,-153.8 626.66,-153.8 623.66,-149.8 567.34,-149.8 567.34,-113.8 650.66,-113.8 650.66,-149.8"/>
<text text-anchor="middle" x="609" y="-127.6" font-family="Times,serif" font-size="14.00">AppModule</text>
</g>
<!-- AppComponent&#45;&gt;AppModule -->
<g id="edge1" class="edge">
<title>AppComponent&#45;&gt;AppModule</title>
<path fill="none" stroke="black" d="M1085,-85.09C1085,-107.01 1085,-140.8 1085,-140.8 1085,-140.8 660.82,-140.8 660.82,-140.8"/>
<polygon fill="black" stroke="black" points="660.82,-137.3 650.82,-140.8 660.82,-144.3 660.82,-137.3"/>
</g>
<!-- CardStylingDirective -->
<g id="node2" class="node">
<title>CardStylingDirective</title>
<polygon fill="#ffffb3" stroke="black" points="1013.75,-84.8 878.25,-84.8 878.25,-48.8 1013.75,-48.8 1013.75,-84.8"/>
<text text-anchor="middle" x="946" y="-62.6" font-family="Times,serif" font-size="14.00">CardStylingDirective</text>
</g>
<!-- CardStylingDirective&#45;&gt;AppModule -->
<g id="edge2" class="edge">
<title>CardStylingDirective&#45;&gt;AppModule</title>
<path fill="none" stroke="black" d="M946,-84.91C946,-104.14 946,-131.8 946,-131.8 946,-131.8 661,-131.8 661,-131.8"/>
<polygon fill="black" stroke="black" points="661,-128.3 651,-131.8 661,-135.3 661,-128.3"/>
</g>
<!-- PageNotFoundComponent -->
<g id="node3" class="node">
<title>PageNotFoundComponent</title>
<polygon fill="#ffffb3" stroke="black" points="859.83,-84.8 694.17,-84.8 694.17,-48.8 859.83,-48.8 859.83,-84.8"/>
<text text-anchor="middle" x="777" y="-62.6" font-family="Times,serif" font-size="14.00">PageNotFoundComponent</text>
</g>
<!-- PageNotFoundComponent&#45;&gt;AppModule -->
<g id="edge3" class="edge">
<title>PageNotFoundComponent&#45;&gt;AppModule</title>
<path fill="none" stroke="black" d="M777,-84.83C777,-101.2 777,-122.8 777,-122.8 777,-122.8 660.96,-122.8 660.96,-122.8"/>
<polygon fill="black" stroke="black" points="660.96,-119.3 650.96,-122.8 660.96,-126.3 660.96,-119.3"/>
</g>
<!-- PkmnTypeColorPipe -->
<g id="node4" class="node">
<title>PkmnTypeColorPipe</title>
<polygon fill="#ffffb3" stroke="black" points="676.22,-84.8 541.78,-84.8 541.78,-48.8 676.22,-48.8 676.22,-84.8"/>
<text text-anchor="middle" x="609" y="-62.6" font-family="Times,serif" font-size="14.00">PkmnTypeColorPipe</text>
</g>
<!-- PkmnTypeColorPipe&#45;&gt;AppModule -->
<g id="edge4" class="edge">
<title>PkmnTypeColorPipe&#45;&gt;AppModule</title>
<path fill="none" stroke="black" d="M609,-84.91C609,-84.91 609,-103.79 609,-103.79"/>
<polygon fill="black" stroke="black" points="605.5,-103.79 609,-113.79 612.5,-103.79 605.5,-103.79"/>
</g>
<!-- PokemonDetailsComponent -->
<g id="node5" class="node">
<title>PokemonDetailsComponent</title>
<polygon fill="#ffffb3" stroke="black" points="523.88,-84.8 350.12,-84.8 350.12,-48.8 523.88,-48.8 523.88,-84.8"/>
<text text-anchor="middle" x="437" y="-62.6" font-family="Times,serif" font-size="14.00">PokemonDetailsComponent</text>
</g>
<!-- PokemonDetailsComponent&#45;&gt;AppModule -->
<g id="edge5" class="edge">
<title>PokemonDetailsComponent&#45;&gt;AppModule</title>
<path fill="none" stroke="black" d="M437,-84.83C437,-101.2 437,-122.8 437,-122.8 437,-122.8 556.92,-122.8 556.92,-122.8"/>
<polygon fill="black" stroke="black" points="556.92,-126.3 566.92,-122.8 556.92,-119.3 556.92,-126.3"/>
</g>
<!-- PokemonListComponent -->
<g id="node6" class="node">
<title>PokemonListComponent</title>
<polygon fill="#ffffb3" stroke="black" points="332,-84.8 176,-84.8 176,-48.8 332,-48.8 332,-84.8"/>
<text text-anchor="middle" x="254" y="-62.6" font-family="Times,serif" font-size="14.00">PokemonListComponent</text>
</g>
<!-- PokemonListComponent&#45;&gt;AppModule -->
<g id="edge6" class="edge">
<title>PokemonListComponent&#45;&gt;AppModule</title>
<path fill="none" stroke="black" d="M254,-84.91C254,-104.14 254,-131.8 254,-131.8 254,-131.8 557.23,-131.8 557.23,-131.8"/>
<polygon fill="black" stroke="black" points="557.23,-135.3 567.23,-131.8 557.23,-128.3 557.23,-135.3"/>
</g>
<!-- AppComponent  -->
<g id="node9" class="node">
<title>AppComponent </title>
<polygon fill="#80b1d3" stroke="black" points="663.44,-214.8 554.56,-214.8 554.56,-178.8 663.44,-178.8 663.44,-214.8"/>
<text text-anchor="middle" x="609" y="-192.6" font-family="Times,serif" font-size="14.00">AppComponent </text>
</g>
<!-- AppModule&#45;&gt;AppComponent  -->
<g id="edge8" class="edge">
<title>AppModule&#45;&gt;AppComponent </title>
<path fill="none" stroke="black" stroke-dasharray="1,5" d="M609,-149.91C609,-149.91 609,-168.79 609,-168.79"/>
<polygon fill="black" stroke="black" points="605.5,-168.79 609,-178.79 612.5,-168.79 605.5,-168.79"/>
</g>
<!-- AppRoutingModule -->
<g id="node8" class="node">
<title>AppRoutingModule</title>
<polygon fill="#8dd3c7" stroke="black" points="152.28,-84.8 149.28,-88.8 128.28,-88.8 125.28,-84.8 23.72,-84.8 23.72,-48.8 152.28,-48.8 152.28,-84.8"/>
<text text-anchor="middle" x="88" y="-62.6" font-family="Times,serif" font-size="14.00">AppRoutingModule</text>
</g>
<!-- AppRoutingModule&#45;&gt;AppModule -->
<g id="edge7" class="edge">
<title>AppRoutingModule&#45;&gt;AppModule</title>
<path fill="none" stroke="black" d="M88,-85.09C88,-107.01 88,-140.8 88,-140.8 88,-140.8 557.25,-140.8 557.25,-140.8"/>
<polygon fill="black" stroke="black" points="557.25,-144.3 567.25,-140.8 557.25,-137.3 557.25,-144.3"/>
</g>
</g>
</svg>
